<?xml version="1.0" encoding="UTF-8"?><svg id="Layer_2" xmlns="http://www.w3.org/2000/svg" viewBox="0 0 1326.24 1226.43"><defs><style>.cls-1{fill:#f15a24;}.cls-2{fill:#333;}.cls-3{fill:none;}</style></defs><g id="Layer_1-2"><path class="cls-1" d="M448.35,1222.43v4h-117.99c-34.74,0-63.01-28.27-63.01-63.01v-450.99h4v450.99c0,32.54,26.47,59.01,59.01,59.01h117.99Z"/><path class="cls-1" d="M269.35,712.43v450.99c0,33.69,27.31,61.01,61.01,61.01h117.99l-179-512Z"/><path class="cls-1" d="M1003.34,1226.43h-122.99v-4h122.99c32.54,0,59.01-26.47,59.01-59.01v-449.99h4v449.99c0,34.74-28.27,63.01-63.01,63.01Z"/><path class="cls-1" d="M1064.35,713.43v449.99c0,33.69-27.32,61.01-61.01,61.01h-122.99"/><path class="cls-1" d="M1047.81,675.22l-1.7,.84v.37l-.04,1.6h-.56l-3.26-1.97-.73-.44-1.97-1.19-.75-.45-1.18-.71-340.2-205.42c-18.8-11.36-42.17-11.36-60.97,0l-340.27,205.47-.2,.12-.13,.07h-.01l-1.22,.74-.29,.18-1.9,1.15-.8,.48-2.75,1.66-.55,.33h-.55v-1.99h-2.02l1.26-1.26-.23-.37,7.4-4.58,2.8-1.69,337.39-203.73c20.08-12.14,45.03-12.14,65.11,0l340.39,205.53,.12,.07,.6,.36,.05,.03,1.75,1.16,.08,.05,4.67,3.07,.02,.02c.21,.16,.43,.32,.64,.5Z"/><path class="cls-1" d="M1046.1,676.06s-.03-.03-.04-.03l-7.1-4.29-.06-.03-340.45-205.57c-19.38-11.71-43.66-11.71-63.04,0l-340.37,205.53s-.06,.02-.08,.04l-7.19,4.34s-.02,0-.02,.01h758.35Z"/><path class="cls-1" d="M280.02,749.67l12.59-75.24h748.7l12.64,75.11-137.87,383.26-97.31-104.76v-.79c0-78.5-58.73-144.33-136.6-153.13-5.78-.66-11.67-.99-17.52-.99s-11.74,.33-17.51,.99c-77.88,8.8-136.62,74.63-136.62,153.13v.77l-95.98,105.96-134.53-384.33Z"/><path class="cls-1" d="M1051.9,749.36l-136.58,379.68-94.54-101.78c0-80.22-60.51-146.32-138.38-155.12-5.82-.66-11.74-1-17.74-1s-11.92,.34-17.74,1c-77.88,8.8-138.39,74.9-138.39,155.12l-93.2,102.9-95.29-272.22-37.96-108.45,12.23-73.06h745.32l12.27,72.93Z"/><path class="cls-1" d="M646.92,873.43l-.23-3.99c5.92-.67,11.97-1.01,17.97-1.01s12.04,.34,17.97,1.01l-.23,3.99h-35.48Z"/><path class="cls-1" d="M682.4,871.43h-35.48c5.82-.66,11.74-1,17.74-1s11.92,.34,17.74,1Z"/><path class="cls-1" d="M325.75,1226.43l87.6-96.92,.51-.58,96.48-106.75v142c0,34.33-27.93,62.26-62.26,62.26h-122.34Z"/><path class="cls-1" d="M508.35,1027.37v136.8c0,33.28-26.98,60.26-60.26,60.26h-117.84l85.1-94.15h0l93-102.91Z"/><path class="cls-1" d="M880.9,1226.43c-34.25,0-62.12-27.25-62.12-60.74v-138.43l189.2,199.17h-127.08Z"/><path class="cls-1" d="M286.79,674.43l-1.03,.63c-4.07,3.12-7.61,6.88-10.53,11.18-3.74,5.52-6.42,12.03-7.88,19.09v122.1h4v-115.11l-.92-1.09c.99-8.51,3.79-16.36,8.11-22.75,2.74-4.03,6.06-7.53,9.89-10.43l.45-.33,.08-.06c.75-.55,1.53-1.09,2.33-1.6,.38-.25,.78-.49,1.18-.72,.52-.33,1.06-.63,1.6-.91,.19-.12,.39-.22,.58-.32,.39-.21,.79-.41,1.19-.6h.01l.13-.07,.16-.08,.04-.04,.2-.2-1.33-1.44h0l-.62-1.91-.13,.04-.11,.04-7.4,4.58Z"/><path class="cls-1" d="M295.04,671.67s-.06,.02-.08,.04c-2.53,1.23-4.94,2.68-7.19,4.34,0,0-.02,0-.02,.01-4.24,3.11-7.91,6.94-10.87,11.3-4.75,7.02-7.61,15.44-8.54,24.5l1,1.19v114.38l25.7-155.76Z"/><rect class="cls-1" x="647.35" y="869.43" width="35" height="4"/><path class="cls-1" d="M1066.35,713.05v112.38h-4v-112.38c0-8.8-2.6-17.3-7.51-24.57-2.8-4.13-6.24-7.72-10.22-10.67l-.13-.1s-.04-.02-.05-.04l-.34-.25c-.66-.48-1.33-.93-2.01-1.36-1.06-.69-2.14-1.32-3.25-1.89h-.01c-.4-.23-.81-.43-1.22-.63l-.1-.05,.11-.22,.8-1.56,.12-.22h0l.79-1.56c1.04,.51,2.07,1.05,3.07,1.65l.08,.05,4.67,3.07,.02,.02c.21,.16,.43,.32,.64,.5,4,3.09,7.47,6.79,10.34,11.02,5.37,7.94,8.2,17.21,8.2,26.81Z"/><path class="cls-1" d="M1064.35,825.43v-112.38c0-9.52-2.9-18.36-7.85-25.69-2.96-4.36-6.64-8.19-10.88-11.3,0-.02-.03-.03-.04-.03-2.22-1.64-4.6-3.08-7.1-4.29l-.06-.03,25.93,153.72Z"/><path class="cls-2" d="M25.62,351.92c-48.24,47.13-22,154.5,26.26,217.25,51.9,67.5,159.03,122.1,219.47,80.16,59.87-41.55,52.66-163.07-1.15-234.93-60.44-80.73-191.4-114.44-244.58-62.48Z"/><path class="cls-2" d="M434.11,1.14c-85.59,10.31-147.86,142.79-138.04,251.69,10.56,117.1,107.77,243.34,200.04,230.61,83.6-11.54,138.06-133.71,135.95-230C629.27,126.95,527.66-10.13,434.11,1.14Z"/><path class="cls-2" d="M684.64,222.63C699.77,106.99,797.72-14.37,884.64,1.39c79.08,14.34,125.23,137.88,121.35,231.82-5.24,126.7-104.14,263.67-192.91,251.89-82.7-10.97-143.26-149.27-128.44-262.47Z"/><path class="cls-2" d="M1292.39,349.03c-57.38-49.3-171.72-9.63-227.65,59.15-55.11,67.78-70.43,184.61-14.73,230.91,58.77,48.84,179.11,4.65,234.22-72.14,45.72-63.71,62.12-171.56,8.16-217.92Z"/><polyline class="cls-3" points="296.99 668.16 294.3 669.81 286.79 674.43 285.76 675.06"/><polyline class="cls-3" points="1047.17 674.72 1047.16 674.71 1047.15 674.7 1042.48 671.63 1042.4 671.58 1040.65 670.42 1040.6 670.39"/></g></svg>